<svg width="34" height="40" viewBox="0 0 34 40" fill="none" xmlns="http://www.w3.org/2000/svg">
<path d="M34 32.381V34.2857H0V32.381L3.77778 28.5714V17.1429C3.77778 11.2381 7.61222 6.0381 13.2222 4.3619C13.2222 4.17143 13.2222 4 13.2222 3.80952C13.2222 2.79918 13.6202 1.83021 14.3287 1.11578C15.0372 0.401359 15.9981 0 17 0C18.0019 0 18.9628 0.401359 19.6713 1.11578C20.3798 1.83021 20.7778 2.79918 20.7778 3.80952C20.7778 4 20.7778 4.17143 20.7778 4.3619C26.3878 6.0381 30.2222 11.2381 30.2222 17.1429V28.5714L34 32.381ZM20.7778 36.1905C20.7778 37.2008 20.3798 38.1698 19.6713 38.8842C18.9628 39.5986 18.0019 40 17 40C15.9981 40 15.0372 39.5986 14.3287 38.8842C13.6202 38.1698 13.2222 37.2008 13.2222 36.1905" fill="#999898"/>
</svg>
