<svg width="180" height="163" viewBox="0 0 180 163" fill="none" xmlns="http://www.w3.org/2000/svg">
<path d="M147.273 97.8H180V0H147.273M114.545 0H40.9091C34.1182 0 28.3091 4.075 25.8545 9.943L1.14545 67.4005C0.409091 69.275 0 71.231 0 73.35V89.65C0 93.973 1.72402 98.119 4.7928 101.176C7.86158 104.233 12.0237 105.95 16.3636 105.95H67.9909L60.2182 143.195C60.0545 144.01 59.9727 144.825 59.9727 145.722C59.9727 149.145 61.3636 152.16 63.5727 154.361L72.2455 163L126.082 109.291C129.109 106.357 130.909 102.282 130.909 97.8V16.3C130.909 7.2535 123.545 0 114.545 0Z" fill="#FFD400"/>
</svg>
