<svg width="468" height="46" viewBox="0 0 468 46" fill="none" xmlns="http://www.w3.org/2000/svg">
<path d="M21.65 19.8C21.6167 19.9667 21.4833 20.25 21.25 20.65C21.0167 21.0167 20.65 21.2333 20.15 21.3C19.7167 21.3667 19.2833 21.45 18.85 21.55C18.45 21.6167 18.0167 21.6833 17.55 21.75C17.1833 23.25 16.9 24.7833 16.7 26.35C16.5 27.9167 16.3167 29.4667 16.15 31C16.0833 31.6333 15.9 32.1667 15.6 32.6C15.3333 33.0333 14.9333 33.2167 14.4 33.15C13.8333 33.0833 13.4667 32.8333 13.3 32.4C13.1667 31.9667 13.1 31.5167 13.1 31.05C13.1 30.45 13.1167 29.7833 13.15 29.05C13.2167 28.2833 13.3 27.5167 13.4 26.75C13.5 25.95 13.6 25.1667 13.7 24.4C13.8333 23.6333 13.9833 22.95 14.15 22.35C12.3167 22.6833 10.4667 23.0333 8.6 23.4C6.73333 23.7667 5 24.1333 3.4 24.5C2.63333 24.6667 1.96667 24.6667 1.4 24.5C0.866667 24.3333 0.55 24 0.45 23.5C0.383333 23.0667 0.6 22.6667 1.1 22.3C1.6 21.9333 2.15 21.6667 2.75 21.5C3.95 21.2333 5.25 20.95 6.65 20.65C8.05 20.3167 9.46667 20.0167 10.9 19.75C12.3667 19.45 13.8167 19.2167 15.25 19.05C16.7167 18.85 18.1167 18.7333 19.45 18.7C20.15 18.7 20.7 18.8333 21.1 19.1C21.5 19.3333 21.6833 19.5667 21.65 19.8ZM14.05 5.4C14.4167 5.46667 14.7333 5.66667 15 6C15.3 6.3 15.5167 6.68333 15.65 7.15C15.7833 7.58333 15.8333 8.06667 15.8 8.6C15.8 9.13333 15.6833 9.66667 15.45 10.2C15.25 10.6333 14.9667 11.1 14.6 11.6C14.2667 12.1 13.8667 12.5833 13.4 13.05C12.9667 13.5167 12.4833 13.9333 11.95 14.3C11.45 14.6667 10.9333 14.9167 10.4 15.05C9.96667 15.1833 9.51667 15.2333 9.05 15.2C8.61667 15.1667 8.2 15.05 7.8 14.85C7.4 14.65 7.06667 14.3833 6.8 14.05C6.53333 13.7167 6.35 13.3167 6.25 12.85C6.18333 12.4167 6.2 11.85 6.3 11.15C6.43333 10.45 6.61667 9.73333 6.85 9C7.11667 8.23333 7.43333 7.5 7.8 6.8C8.16667 6.1 8.55 5.51667 8.95 5.05C9.21667 4.78333 9.5 4.55 9.8 4.35C10.1 4.11666 10.4667 4 10.9 4C11.2667 4 11.5333 4.16666 11.7 4.5C11.9 4.83333 12 5.18333 12 5.55C12.4 5.41666 12.75 5.35 13.05 5.35C13.3833 5.31667 13.7167 5.33333 14.05 5.4ZM9.95 30.8C9.88333 31.1333 9.81667 31.5333 9.75 32C9.68333 32.4667 9.61667 32.95 9.55 33.45C9.51667 33.9167 9.48333 34.3833 9.45 34.85C9.41667 35.3167 9.4 35.7333 9.4 36.1C10.5667 35.9 11.65 35.6833 12.65 35.45C13.65 35.2167 14.6333 34.9667 15.6 34.7C16.6 34.4333 17.6167 34.1333 18.65 33.8C19.6833 33.4333 20.8333 33.0333 22.1 32.6C22.6667 32.4 23.0667 32.3333 23.3 32.4C23.5333 32.4667 23.6667 32.6833 23.7 33.05C23.7667 33.6833 23.5667 34.1833 23.1 34.55C22.6667 34.8833 22.1833 35.1833 21.65 35.45C20.95 35.8167 20.1167 36.2 19.15 36.6C18.1833 37 17.15 37.3833 16.05 37.75C14.9833 38.1167 13.8667 38.4333 12.7 38.7C11.5667 38.9667 10.4667 39.15 9.4 39.25C8.73333 39.3167 8.2 39.2667 7.8 39.1C7.4 38.9333 7.08333 38.7167 6.85 38.45C6.61667 38.15 6.45 37.85 6.35 37.55C6.25 37.25 6.2 37 6.2 36.8C6.13333 36.2333 6.13333 35.45 6.2 34.45C6.26667 33.45 6.38333 32.55 6.55 31.75C6.68333 31.2833 6.91667 30.7667 7.25 30.2C7.58333 29.6333 8.01667 29.3 8.55 29.2C9.68333 29 10.15 29.5333 9.95 30.8ZM9.85 12C10.05 12 10.3 11.8833 10.6 11.65C10.9 11.3833 11.2 11.0833 11.5 10.75C11.8333 10.3833 12.1167 10.0167 12.35 9.65C12.6167 9.28333 12.7833 8.95 12.85 8.65C13.0167 8.38333 13.0333 8.16667 12.9 8C12.7667 7.8 12.5833 7.61666 12.35 7.45C12.0833 7.28333 11.7667 7.11666 11.4 6.95C11.2 7.25 11 7.66666 10.8 8.2C10.6333 8.7 10.4833 9.2 10.35 9.7C10.2167 10.2 10.1 10.6667 10 11.1C9.93333 11.5333 9.88333 11.8333 9.85 12ZM28.4598 12.7C29.4598 12.4333 30.3431 12.25 31.1098 12.15C31.9098 12.0167 32.6264 11.9333 33.2598 11.9C34.0931 11.9 34.7098 12.0167 35.1098 12.25C35.5098 12.45 35.7764 12.7167 35.9098 13.05C36.0764 13.35 36.1264 13.7 36.0598 14.1C36.0264 14.4667 35.9764 14.8 35.9098 15.1C35.5431 16.8 35.1098 18.6 34.6098 20.5C34.1431 22.3667 33.7098 24.1167 33.3098 25.75C34.4098 25.65 35.5098 25.5833 36.6098 25.55C37.7431 25.5167 38.8098 25.5167 39.8098 25.55C40.3764 25.5833 40.7931 25.75 41.0598 26.05C41.3264 26.3167 41.4264 26.6167 41.3598 26.95C41.3264 27.1167 41.1598 27.3333 40.8598 27.6C40.5598 27.8667 40.2098 28.0167 39.8098 28.05C37.9764 28.2167 35.9931 28.4167 33.8598 28.65C31.7598 28.8833 29.7598 29.15 27.8598 29.45C27.1931 29.55 26.6431 29.45 26.2098 29.15C25.8098 28.85 25.6098 28.4833 25.6098 28.05C25.6098 27.7833 25.7431 27.5 26.0098 27.2C26.3098 26.9 26.7598 26.6833 27.3598 26.55C27.7598 26.4833 28.1931 26.4167 28.6598 26.35C29.1264 26.25 29.6098 26.1667 30.1098 26.1C30.3098 25.3 30.5098 24.4333 30.7098 23.5C30.9098 22.5333 31.1098 21.5667 31.3098 20.6C31.5431 19.6 31.7598 18.6167 31.9598 17.65C32.1598 16.6833 32.3431 15.7833 32.5098 14.95C31.8098 15.0167 31.0764 15.15 30.3098 15.35C29.5431 15.5167 28.7431 15.6833 27.9098 15.85C27.0764 16.0167 26.4264 15.8167 25.9598 15.25C25.4931 14.6833 25.2264 14.0167 25.1598 13.25C25.0931 12.4833 25.1931 11.6667 25.4598 10.8C25.7264 9.9 26.0598 9.06667 26.4598 8.3C26.5264 8.16667 26.6098 8 26.7098 7.8C26.8098 7.6 26.9431 7.41666 27.1098 7.25C26.8098 7.31667 26.5264 7.36667 26.2598 7.4C25.9931 7.4 25.7264 7.41666 25.4598 7.45C24.8931 7.51667 24.4264 7.35 24.0598 6.95C23.7264 6.51666 23.5931 6.06666 23.6598 5.6C23.6931 5.36667 23.7598 5.16667 23.8598 5C23.9264 4.83333 24.0431 4.68333 24.2098 4.55C24.3764 4.41667 24.6098 4.31667 24.9098 4.25C25.1431 4.21666 25.6764 4.15 26.5098 4.05C27.3431 3.95 28.2764 3.86667 29.3098 3.8C30.3764 3.73333 31.4598 3.71666 32.5598 3.75C33.6931 3.75 34.6764 3.85 35.5098 4.05C35.7764 4.11666 36.1264 4.31667 36.5598 4.65C36.9931 4.95 37.2098 5.3 37.2098 5.7C37.2098 5.86667 37.0931 6.06667 36.8598 6.3C36.6598 6.5 36.3764 6.6 36.0098 6.6C35.0431 6.63333 33.9598 6.68333 32.7598 6.75C31.5598 6.81667 30.3598 6.91667 29.1598 7.05C29.3264 7.21667 29.4431 7.45 29.5098 7.75C29.6098 8.05 29.6098 8.43333 29.5098 8.9L28.4598 12.7ZM39.0098 35.6C38.8764 36.3667 38.5098 37.0667 37.9098 37.7C37.3431 38.3 36.6598 38.8167 35.8598 39.25C35.0931 39.6833 34.2764 39.9833 33.4098 40.15C32.5764 40.35 31.8598 40.3833 31.2598 40.25C30.0264 39.9833 29.2764 39.4 29.0098 38.5C28.7431 37.5667 29.0098 36.4833 29.8098 35.25C30.1098 34.7833 30.5264 34.3 31.0598 33.8C31.6264 33.3 32.2431 32.8667 32.9098 32.5C33.3764 32.2333 33.9431 32.0167 34.6098 31.85C35.3098 31.65 35.8098 31.7 36.1098 32C36.3098 32.2333 36.3598 32.5167 36.2598 32.85C37.4264 32.9167 38.1931 33.2667 38.5598 33.9C38.9598 34.5 39.1098 35.0667 39.0098 35.6ZM35.1598 34.15C34.4931 34.65 33.8764 35.1833 33.3098 35.75C32.7431 36.3167 32.2431 36.9833 31.8098 37.75C32.4431 37.5833 33.1431 37.35 33.9098 37.05C34.6764 36.7167 35.3431 36.3167 35.9098 35.85C36.3098 35.55 36.5098 35.25 36.5098 34.95C36.4764 34.6833 36.0931 34.3667 35.3598 34C35.3264 34.0333 35.2931 34.0667 35.2598 34.1C35.2264 34.1 35.1931 34.1167 35.1598 34.15ZM61.1594 26.5C61.1927 26.7667 61.0927 27.05 60.8594 27.35C60.6594 27.6167 60.376 27.7833 60.0094 27.85C59.5427 27.95 59.1427 27.8333 58.8094 27.5C58.5094 27.1667 58.326 26.8333 58.2594 26.5C58.126 25.8667 58.026 24.9833 57.9594 23.85C57.8927 22.6833 57.8594 21.4667 57.8594 20.2C57.8927 18.9 57.9427 17.6667 58.0094 16.5C58.1094 15.3 58.2427 14.3333 58.4094 13.6C58.5094 13.1333 58.6927 12.7333 58.9594 12.4C59.2594 12.0667 59.6594 11.9167 60.1594 11.95C60.5927 12.0167 60.926 12.2333 61.1594 12.6C61.426 12.9667 61.526 13.4167 61.4594 13.95C61.426 14.0833 61.3927 14.2 61.3594 14.3C61.3594 14.4 61.3594 14.5167 61.3594 14.65C61.426 14.5833 61.5094 14.5167 61.6094 14.45C61.7094 14.3833 61.826 14.3167 61.9594 14.25C62.326 14.05 62.7594 13.85 63.2594 13.65C63.7927 13.45 64.3094 13.2667 64.8094 13.1C65.3427 12.9333 65.826 12.8 66.2594 12.7C66.726 12.5667 67.1094 12.5 67.4094 12.5C68.3427 12.4667 69.1094 12.7 69.7094 13.2C70.3094 13.6667 70.5427 14.4167 70.4094 15.45C70.3427 16.0833 70.176 16.8167 69.9094 17.65C69.676 18.45 69.3927 19.2667 69.0594 20.1C68.7594 20.9333 68.426 21.7333 68.0594 22.5C67.726 23.2333 67.4427 23.8667 67.2094 24.4C68.0427 24.1667 68.8094 23.95 69.5094 23.75C70.2427 23.55 70.976 23.3 71.7094 23C72.1094 22.8333 72.5427 22.75 73.0094 22.75C73.476 22.7167 73.776 22.8833 73.9094 23.25C73.976 23.45 73.926 23.8167 73.7594 24.35C73.5927 24.85 73.176 25.3 72.5094 25.7C71.3427 26.3 70.276 26.7667 69.3094 27.1C68.3427 27.4333 67.2927 27.7167 66.1594 27.95C65.7927 28.0167 65.3927 28 64.9594 27.9C64.5594 27.8 64.2094 27.6333 63.9094 27.4C63.6094 27.1333 63.3927 26.8333 63.2594 26.5C63.1594 26.1333 63.2094 25.7167 63.4094 25.25C63.6094 24.75 63.8594 24.1167 64.1594 23.35C64.4927 22.55 64.8094 21.7167 65.1094 20.85C65.4427 19.9833 65.7594 19.1167 66.0594 18.25C66.3594 17.35 66.6094 16.5333 66.8094 15.8C66.2427 15.9333 65.5427 16.15 64.7094 16.45C63.876 16.7167 63.1427 17.0167 62.5094 17.35C62.2427 17.4833 61.9927 17.5167 61.7594 17.45C61.526 17.3833 61.326 17.2667 61.1594 17.1C61.126 18 61.0927 18.9333 61.0594 19.9C61.0594 20.8667 61.0594 21.7833 61.0594 22.65C61.0594 23.5167 61.0594 24.3 61.0594 25C61.0927 25.6667 61.126 26.1667 61.1594 26.5ZM80.9594 28.15C80.4927 28.15 80.0594 27.85 79.6594 27.25C79.2594 26.65 79.026 25.9833 78.9594 25.25C78.8594 23.8167 78.826 22.4 78.8594 21C78.926 19.5667 79.0427 18.15 79.2094 16.75C78.2094 17.25 77.3094 17.7667 76.5094 18.3C75.7427 18.8 74.876 19.3833 73.9094 20.05C73.4094 20.4167 72.926 20.55 72.4594 20.45C71.9927 20.3167 71.6427 20.1 71.4094 19.8C71.076 19.4 71.0594 18.9833 71.3594 18.55C71.6594 18.0833 72.076 17.6333 72.6094 17.2C73.5427 16.4667 74.5594 15.7667 75.6594 15.1C76.7927 14.4 78.126 13.7167 79.6594 13.05C79.8927 12.95 80.1427 12.8667 80.4094 12.8C80.7094 12.7 80.9427 12.65 81.1094 12.65C81.576 12.6833 81.926 12.9167 82.1594 13.35C82.3927 13.75 82.4927 14.1333 82.4594 14.5C82.2927 16.5 82.1594 18.45 82.0594 20.35C81.9594 22.2167 81.926 24.0333 81.9594 25.8C81.9594 27.3667 81.626 28.15 80.9594 28.15ZM87.4094 29.25C87.1094 29.25 86.8594 29.15 86.6594 28.95C86.4594 28.75 86.2927 28.5 86.1594 28.2C86.026 27.9 85.9094 27.5667 85.8094 27.2C85.7427 26.8333 85.7094 26.4833 85.7094 26.15C85.6427 25.0833 85.626 23.9167 85.6594 22.65C85.6927 21.3833 85.7427 20.1167 85.8094 18.85C85.876 17.5833 85.976 16.3333 86.1094 15.1C86.2427 13.8667 86.3927 12.75 86.5594 11.75C86.6594 11.1833 86.876 10.7 87.2094 10.3C87.576 9.9 87.976 9.78333 88.4094 9.95C88.8427 10.1167 89.1927 10.5167 89.4594 11.15C89.726 11.7833 89.8094 12.4333 89.7094 13.1C89.376 15.5 89.1427 17.8833 89.0094 20.25C88.876 22.5833 88.7927 24.9167 88.7594 27.25C88.7594 27.75 88.6427 28.2167 88.4094 28.65C88.2094 29.0833 87.876 29.2833 87.4094 29.25ZM103.925 22.8C103.725 23.5667 103.325 24.2833 102.725 24.95C102.125 25.6167 101.441 26.1667 100.675 26.6C99.9413 27 99.1579 27.25 98.3246 27.35C97.5246 27.4167 96.7913 27.25 96.1246 26.85C95.3913 26.4167 94.9413 25.65 94.7746 24.55C94.7079 23.75 94.7746 22.9333 94.9746 22.1C95.2079 21.2333 95.5079 20.4167 95.8746 19.65C96.2746 18.85 96.7413 18.1167 97.2746 17.45C97.8413 16.75 98.4579 16.1833 99.1246 15.75C99.5913 15.4833 100.058 15.3333 100.525 15.3C101.025 15.2667 101.458 15.4167 101.825 15.75C102.058 16.0167 102.141 16.3 102.075 16.6C102.041 16.9 101.908 17.1833 101.675 17.45C102.308 17.8833 102.791 18.35 103.125 18.85C103.458 19.35 103.691 19.85 103.825 20.35C103.991 20.8167 104.058 21.2667 104.025 21.7C104.025 22.1333 103.991 22.5 103.925 22.8ZM114.425 10.3C114.391 12 114.375 13.6 114.375 15.1C114.375 16.5667 114.391 18 114.425 19.4C114.491 20.7667 114.575 22.15 114.675 23.55C114.775 24.95 114.891 26.4167 115.025 27.95C115.091 28.5167 115.025 29.0167 114.825 29.45C114.658 29.85 114.408 30.1167 114.075 30.25C113.808 30.3167 113.558 30.3167 113.325 30.25C113.125 30.15 112.941 30.0167 112.775 29.85C112.608 29.65 112.458 29.45 112.325 29.25C112.225 29.0167 112.158 28.8 112.125 28.6C111.358 25.3667 110.941 22.1833 110.875 19.05C110.841 15.9167 110.958 12.95 111.225 10.15C111.291 9.58333 111.408 9.13333 111.575 8.8C111.775 8.43333 112.108 8.25 112.575 8.25C113.041 8.25 113.475 8.45 113.875 8.85C114.275 9.21667 114.458 9.7 114.425 10.3ZM98.0746 24.65C98.2746 24.65 98.5246 24.5833 98.8246 24.45C99.1579 24.2833 99.4746 24.1 99.7746 23.9C100.075 23.6667 100.341 23.4 100.575 23.1C100.841 22.8 101.008 22.5 101.075 22.2C101.241 21.5333 101.191 20.9833 100.925 20.55C100.691 20.0833 100.341 19.6333 99.8746 19.2C98.5746 20.8 97.9746 22.6167 98.0746 24.65ZM120.173 18.45C119.24 18.4167 118.723 18.1 118.623 17.5C118.69 16.7333 119.107 16.25 119.873 16.05C120.007 15.9833 120.14 15.95 120.273 15.95C120.44 15.9167 120.623 15.8667 120.823 15.8L120.973 13.4C121.007 13.1 121.09 12.7167 121.223 12.25C121.39 11.75 121.69 11.5 122.123 11.5C122.523 11.5 122.957 11.6667 123.423 12C123.923 12.3333 124.157 12.7833 124.123 13.35C124.09 13.7167 124.057 14.0833 124.023 14.45C124.023 14.7833 124.023 15.1167 124.023 15.45C124.89 15.3833 125.723 15.35 126.523 15.35C127.323 15.35 127.957 15.3667 128.423 15.4C128.957 15.4333 129.457 15.5667 129.923 15.8C130.423 16 130.623 16.3833 130.523 16.95C130.457 17.5167 129.857 17.85 128.723 17.95C128.09 18.0167 127.34 18.1 126.473 18.2C125.64 18.2667 124.79 18.3333 123.923 18.4C123.89 20.0333 123.89 21.7833 123.923 23.65C124.823 23.3833 125.74 23.0667 126.673 22.7C127.64 22.3333 128.573 21.9667 129.473 21.6C130.373 21.2333 131.223 20.8667 132.023 20.5C132.823 20.1333 133.507 19.8167 134.073 19.55C134.707 19.25 135.34 19.0833 135.973 19.05C136.607 19.0167 137.007 19.15 137.173 19.45C137.473 19.9833 137.307 20.5167 136.673 21.05C136.073 21.5833 135.357 22.1 134.523 22.6C134.29 22.7333 133.907 22.95 133.373 23.25C132.873 23.5167 132.273 23.8167 131.573 24.15C130.907 24.4833 130.19 24.8167 129.423 25.15C128.657 25.4833 127.907 25.8 127.173 26.1C126.473 26.4 125.807 26.65 125.173 26.85C124.573 27.0167 124.09 27.1 123.723 27.1C122.757 27.1 122.04 26.8 121.573 26.2C121.14 25.6 120.89 24.7667 120.823 23.7C120.757 22.9333 120.707 22.1167 120.673 21.25C120.673 20.35 120.69 19.4333 120.723 18.5C120.623 18.5 120.523 18.5 120.423 18.5C120.323 18.4667 120.24 18.45 120.173 18.45ZM142.023 27.6C142.09 27.9667 141.907 28.3167 141.473 28.65C141.04 28.9833 140.657 29.2167 140.323 29.35C139.123 29.7833 137.757 30.2333 136.223 30.7C134.723 31.1333 133.19 31.55 131.623 31.95C130.09 32.35 128.59 32.7333 127.123 33.1C125.657 33.4333 124.34 33.7167 123.173 33.95C122.607 34.0833 122.007 34.1167 121.373 34.05C120.74 33.9833 120.323 33.7 120.123 33.2C119.957 32.8 120.04 32.3667 120.373 31.9C120.74 31.4333 121.257 31.1167 121.923 30.95C123.19 30.65 124.623 30.3167 126.223 29.95C127.857 29.55 129.49 29.15 131.123 28.75C132.79 28.3167 134.39 27.9 135.923 27.5C137.49 27.0667 138.84 26.6833 139.973 26.35C140.507 26.2167 140.957 26.3 141.323 26.6C141.723 26.9 141.957 27.2333 142.023 27.6ZM120.123 10.4C119.057 10.2333 118.523 9.83333 118.523 9.2C118.557 8.83333 118.707 8.53333 118.973 8.3C119.24 8.03333 119.573 7.85 119.973 7.75C120.507 7.61667 121.157 7.55 121.923 7.55C122.69 7.51666 123.473 7.51666 124.273 7.55C125.107 7.58333 125.89 7.63333 126.623 7.7C127.39 7.76667 128.023 7.85 128.523 7.95C129.09 8.05 129.623 8.25 130.123 8.55C130.623 8.85 130.79 9.28333 130.623 9.85C130.523 10.4167 129.84 10.7 128.573 10.7C127.973 10.7 127.29 10.7 126.523 10.7C125.79 10.7 125.04 10.7 124.273 10.7C123.507 10.6667 122.757 10.6333 122.023 10.6C121.323 10.5667 120.69 10.5 120.123 10.4ZM165.335 9.05C165.268 10.45 165.235 11.8167 165.235 13.15C165.268 14.4833 165.318 15.85 165.385 17.25C165.785 17.15 166.285 17.05 166.885 16.95C167.485 16.85 168.118 16.7667 168.785 16.7C169.452 16.6333 170.118 16.5833 170.785 16.55C171.452 16.5167 172.068 16.5167 172.635 16.55C173.302 16.6167 173.868 16.7833 174.335 17.05C174.835 17.3167 175.085 17.65 175.085 18.05C175.085 18.45 174.768 18.75 174.135 18.95C173.535 19.15 172.968 19.2667 172.435 19.3C172.002 19.3333 171.485 19.3833 170.885 19.45C170.318 19.5167 169.718 19.6167 169.085 19.75C168.452 19.85 167.818 19.9833 167.185 20.15C166.585 20.2833 166.052 20.4333 165.585 20.6C165.685 21.6333 165.802 22.6667 165.935 23.7C166.068 24.7 166.218 25.7167 166.385 26.75C166.418 27.0167 166.402 27.3 166.335 27.6C166.268 27.8667 166.168 28.1167 166.035 28.35C165.902 28.5833 165.752 28.7833 165.585 28.95C165.418 29.1167 165.268 29.2167 165.135 29.25C164.868 29.3167 164.635 29.3 164.435 29.2C164.268 29.1 164.118 28.9667 163.985 28.8C163.852 28.6333 163.735 28.45 163.635 28.25C163.568 28.0167 163.518 27.8167 163.485 27.65C163.218 26.6167 162.968 25.3667 162.735 23.9C162.502 22.4333 162.318 20.85 162.185 19.15C162.085 17.45 162.018 15.7 161.985 13.9C161.985 12.0667 162.068 10.2667 162.235 8.5C162.335 7.53333 162.718 6.96666 163.385 6.8C163.618 6.76666 163.852 6.81666 164.085 6.95C164.352 7.08333 164.568 7.28333 164.735 7.55C164.935 7.78333 165.085 8.05 165.185 8.35C165.285 8.61667 165.335 8.85 165.335 9.05ZM155.485 17.85C155.352 18.4167 155.185 19.2667 154.985 20.4C154.785 21.5 154.602 22.7167 154.435 24.05C154.302 25.35 154.202 26.65 154.135 27.95C154.068 29.2167 154.085 30.2833 154.185 31.15C154.252 31.85 154.068 32.3 153.635 32.5C153.202 32.7 152.835 32.7667 152.535 32.7C152.268 32.6667 152.035 32.5667 151.835 32.4C151.668 32.2 151.535 31.9833 151.435 31.75C151.335 31.5167 151.252 31.2833 151.185 31.05C151.152 30.8167 151.118 30.6 151.085 30.4C151.018 29.8 151.002 28.95 151.035 27.85C151.068 26.75 151.135 25.5667 151.235 24.3C151.368 23.0333 151.518 21.8 151.685 20.6C151.885 19.4 152.102 18.4 152.335 17.6C151.902 17.7 151.385 17.85 150.785 18.05C150.185 18.25 149.568 18.4833 148.935 18.75C148.335 18.9833 147.752 19.2333 147.185 19.5C146.618 19.7667 146.152 19.9833 145.785 20.15C145.385 20.35 145.002 20.3 144.635 20C144.268 19.7 144.018 19.4167 143.885 19.15C143.785 18.95 143.718 18.6833 143.685 18.35C143.685 18.0167 143.918 17.7167 144.385 17.45C144.718 17.25 145.202 16.9833 145.835 16.65C146.468 16.3167 147.152 15.9833 147.885 15.65C148.652 15.3167 149.435 15.0333 150.235 14.8C151.035 14.5667 151.768 14.45 152.435 14.45C153.668 14.45 154.552 14.7833 155.085 15.45C155.618 16.0833 155.752 16.8833 155.485 17.85ZM219.651 24.6C219.651 25.1 219.501 25.5833 219.201 26.05C218.934 26.4833 218.601 26.8833 218.201 27.25C217.801 27.6167 217.384 27.95 216.951 28.25C216.551 28.5167 216.201 28.7333 215.901 28.9C216.567 28.8333 217.234 28.9 217.901 29.1C218.601 29.2667 219.151 29.55 219.551 29.95C219.984 30.3167 220.234 30.7833 220.301 31.35C220.367 31.8833 220.134 32.45 219.601 33.05C219.134 33.6167 218.551 34.2667 217.851 35C217.151 35.7333 216.434 36.4833 215.701 37.25C214.967 38.0167 214.267 38.7833 213.601 39.55C212.934 40.3167 212.401 41 212.001 41.6C214.034 41.2333 216.017 40.8 217.951 40.3C219.917 39.8 221.834 39.3167 223.701 38.85C224.001 38.75 224.251 38.7333 224.451 38.8C224.651 38.8333 224.784 38.9167 224.851 39.05C225.051 39.3167 225.051 39.6667 224.851 40.1C224.651 40.5333 224.384 40.85 224.051 41.05C223.451 41.4167 222.617 41.8 221.551 42.2C220.484 42.6333 219.334 43.0333 218.101 43.4C216.867 43.8 215.617 44.1667 214.351 44.5C213.084 44.8333 211.984 45.0667 211.051 45.2C210.484 45.3 210.017 45.2333 209.651 45C209.284 44.8 208.967 44.5167 208.701 44.15C208.101 43.45 208.034 42.55 208.501 41.45C208.901 40.65 209.467 39.7833 210.201 38.85C210.934 37.8833 211.684 36.9667 212.451 36.1C213.251 35.2 214.001 34.4 214.701 33.7C215.434 32.9667 215.967 32.4167 216.301 32.05C215.734 32.05 214.934 32.1167 213.901 32.25C212.901 32.35 211.967 32.45 211.101 32.55C210.267 32.6833 209.684 32.6167 209.351 32.35C209.017 32.0833 208.801 31.7167 208.701 31.25C208.634 30.8833 208.684 30.5167 208.851 30.15C209.051 29.7833 209.317 29.4833 209.651 29.25C210.184 28.9167 210.834 28.55 211.601 28.15C212.367 27.7167 213.084 27.2833 213.751 26.85C214.451 26.4167 215.034 26.0167 215.501 25.65C216.001 25.25 216.234 24.9333 216.201 24.7C216.167 24.4 215.934 24.2 215.501 24.1C215.067 23.9667 214.534 23.9 213.901 23.9C213.301 23.9 212.651 23.95 211.951 24.05C211.251 24.1167 210.617 24.2 210.051 24.3C209.417 24.4333 208.851 24.4333 208.351 24.3C207.884 24.1667 207.617 23.7667 207.551 23.1C207.517 22.6333 207.667 22.2833 208.001 22.05C208.367 21.7833 208.801 21.5667 209.301 21.4C209.901 21.2 210.567 21.05 211.301 20.95C212.067 20.8167 212.834 20.75 213.601 20.75C214.401 20.7167 215.151 20.7667 215.851 20.9C216.584 21 217.201 21.1833 217.701 21.45C218.267 21.7167 218.734 22.1333 219.101 22.7C219.467 23.2667 219.651 23.9 219.651 24.6ZM197.401 15.35C197.534 16.6833 197.267 17.5167 196.601 17.85C196.301 18.0167 196.034 18.0833 195.801 18.05C195.601 17.9833 195.401 17.8833 195.201 17.75C195.034 17.5833 194.884 17.4 194.751 17.2C194.651 17 194.584 16.8333 194.551 16.7C194.351 16.1 194.217 15.4167 194.151 14.65C194.117 13.85 194.117 13.0333 194.151 12.2C194.217 11.3333 194.301 10.4833 194.401 9.65C194.534 8.81666 194.684 8.05 194.851 7.35C194.484 7.41666 194.101 7.46666 193.701 7.5C193.334 7.53333 192.967 7.56667 192.601 7.6C192.134 7.66666 191.701 7.63333 191.301 7.5C190.901 7.33333 190.651 7 190.551 6.5C190.484 6.23333 190.534 5.86666 190.701 5.4C190.867 4.9 191.284 4.56666 191.951 4.4C192.784 4.16666 193.717 3.96666 194.751 3.8C195.784 3.63333 196.834 3.51666 197.901 3.45C198.967 3.35 200.034 3.3 201.101 3.3C202.167 3.26666 203.184 3.3 204.151 3.4C204.817 3.46667 205.301 3.61667 205.601 3.85C205.934 4.08333 206.117 4.33333 206.151 4.6C206.184 4.9 206.067 5.15 205.801 5.35C205.567 5.51666 205.267 5.66666 204.901 5.8C203.734 6 202.567 6.2 201.401 6.4C200.234 6.6 199.051 6.78333 197.851 6.95V7.35C197.584 8.75 197.401 10.1667 197.301 11.6C197.234 13 197.267 14.25 197.401 15.35ZM203.451 12.5C203.351 12.8667 203.184 13.3667 202.951 14C202.751 14.6 202.501 15.2333 202.201 15.9C201.934 16.5667 201.651 17.2167 201.351 17.85C201.051 18.4833 200.801 19 200.601 19.4C201.567 19.1 202.601 18.7333 203.701 18.3C204.801 17.8667 205.851 17.45 206.851 17.05C207.017 16.9833 207.251 16.8833 207.551 16.75C207.884 16.6167 208.201 16.5167 208.501 16.45C208.801 16.35 209.067 16.3167 209.301 16.35C209.534 16.35 209.651 16.4667 209.651 16.7C209.651 17.1333 209.317 17.6833 208.651 18.35C208.017 18.9833 207.251 19.5667 206.351 20.1C205.284 20.7333 204.201 21.2833 203.101 21.75C202.001 22.2167 200.917 22.65 199.851 23.05C199.184 23.3167 198.601 23.4167 198.101 23.35C197.601 23.2833 197.217 23.1167 196.951 22.85C196.684 22.5833 196.534 22.2333 196.501 21.8C196.501 21.3333 196.634 20.85 196.901 20.35C197.134 19.85 197.417 19.2333 197.751 18.5C198.117 17.7667 198.484 17 198.851 16.2C199.217 15.4 199.551 14.6 199.851 13.8C200.184 12.9667 200.451 12.2333 200.651 11.6C200.817 11.1333 201.017 10.7333 201.251 10.4C201.517 10.0667 201.884 9.91667 202.351 9.95C202.717 9.98333 202.984 10.1 203.151 10.3C203.351 10.4667 203.467 10.6833 203.501 10.95C203.567 11.2167 203.584 11.5 203.551 11.8C203.517 12.0667 203.484 12.3 203.451 12.5ZM218.001 15.2C217.967 15.7667 217.834 16.2667 217.601 16.7C217.367 17.1333 217.117 17.3667 216.851 17.4C216.384 17.4333 216.034 17.2167 215.801 16.75C215.567 16.2833 215.384 15.7667 215.251 15.2C214.984 13.5667 214.851 11.8 214.851 9.9C214.884 7.96666 214.984 6 215.151 4C215.217 3.26666 215.351 2.81666 215.551 2.65C215.784 2.45 216.051 2.35 216.351 2.35C216.951 2.35 217.417 2.55 217.751 2.95C218.117 3.35 218.301 4.01666 218.301 4.95C218.267 6.55 218.217 8.26667 218.151 10.1C218.117 11.9 218.067 13.6 218.001 15.2ZM236.283 20.45C235.817 21.95 235.25 23.55 234.583 25.25C233.917 26.95 233.1 28.5667 232.133 30.1C233.8 29.5333 235.45 28.9833 237.083 28.45C238.717 27.8833 240.283 27.4167 241.783 27.05C242.083 26.9833 242.417 26.9333 242.783 26.9C243.183 26.8667 243.533 26.8667 243.833 26.9C244.167 26.9333 244.45 26.9833 244.683 27.05C244.917 27.0833 245.067 27.15 245.133 27.25C245.267 27.6167 245.3 27.9333 245.233 28.2C245.167 28.4333 245.033 28.65 244.833 28.85C244.667 29.0167 244.45 29.1833 244.183 29.35C243.917 29.4833 243.667 29.6 243.433 29.7C241.133 30.4 238.883 31.1333 236.683 31.9C234.483 32.6667 232.233 33.4667 229.933 34.3C229.267 34.4667 228.683 34.45 228.183 34.25C227.717 34.05 227.35 33.7667 227.083 33.4C226.85 33.1 226.75 32.85 226.783 32.65C226.85 32.4167 226.967 32.2167 227.133 32.05C227.3 31.8833 227.5 31.75 227.733 31.65C228 31.55 228.217 31.45 228.383 31.35C229.45 29.25 230.367 27.1667 231.133 25.1C231.9 23.0333 232.633 20.95 233.333 18.85C233.467 18.4833 233.733 18.1667 234.133 17.9C234.533 17.6333 235.017 17.65 235.583 17.95C236.25 18.35 236.567 18.75 236.533 19.15C236.533 19.55 236.45 19.9833 236.283 20.45ZM227.683 16.25H227.533C227.467 18.15 227.417 19.95 227.383 21.65C227.35 23.3167 227.45 25.0333 227.683 26.8C227.75 27.2667 227.717 27.6833 227.583 28.05C227.45 28.4167 227.1 28.6 226.533 28.6C226.2 28.6 225.933 28.5167 225.733 28.35C225.533 28.1833 225.367 27.9833 225.233 27.75C225.1 27.4833 224.983 27.2 224.883 26.9C224.817 26.6 224.767 26.3167 224.733 26.05C224.467 24.35 224.317 22.5833 224.283 20.75C224.25 18.9167 224.317 17.05 224.483 15.15C224.217 14.85 224.033 14.4833 223.933 14.05C223.733 13.3167 223.7 12.5833 223.833 11.85C224 11.1167 224.25 10.4333 224.583 9.8C224.917 9.13333 225.3 8.53333 225.733 8C226.167 7.43333 226.567 6.95 226.933 6.55C227.4 6.08333 227.883 5.98333 228.383 6.25C228.683 6.41666 228.933 6.71667 229.133 7.15C229.367 7.58333 229.35 8 229.083 8.4C228.85 8.73333 228.55 9.15 228.183 9.65C227.85 10.15 227.6 10.5833 227.433 10.95C227.133 11.55 227.05 12.05 227.183 12.45C227.35 12.8167 227.65 12.9833 228.083 12.95C228.25 12.95 228.483 12.8833 228.783 12.75C229.117 12.5833 229.467 12.3833 229.833 12.15C230.2 11.9167 230.55 11.65 230.883 11.35C231.217 11.0167 231.483 10.6667 231.683 10.3C231.783 10.1 231.783 9.93333 231.683 9.8C231.583 9.63333 231.467 9.5 231.333 9.4C231.2 9.26667 231.083 9.13333 230.983 9C230.883 8.83333 230.883 8.63333 230.983 8.4C231.15 7.93333 231.45 7.68333 231.883 7.65C232.317 7.61667 232.717 7.68333 233.083 7.85C233.55 8.08333 233.883 8.38333 234.083 8.75C234.317 9.11666 234.433 9.51666 234.433 9.95C234.467 10.3833 234.4 10.8333 234.233 11.3C234.1 11.7333 233.917 12.15 233.683 12.55C232.917 13.7167 231.95 14.6167 230.783 15.25C229.65 15.85 228.617 16.1833 227.683 16.25ZM273.659 23.05C273.659 23.55 273.509 24.0333 273.209 24.5C272.942 24.9333 272.609 25.3333 272.209 25.7C271.809 26.0667 271.392 26.4 270.959 26.7C270.559 26.9667 270.209 27.1833 269.909 27.35C270.576 27.2833 271.242 27.35 271.909 27.55C272.609 27.7167 273.159 28 273.559 28.4C273.992 28.7667 274.242 29.2333 274.309 29.8C274.376 30.3333 274.142 30.9 273.609 31.5C273.142 32.0667 272.559 32.7167 271.859 33.45C271.159 34.1833 270.442 34.9333 269.709 35.7C268.976 36.4667 268.276 37.2333 267.609 38C266.942 38.7667 266.409 39.45 266.009 40.05C268.042 39.6833 270.026 39.25 271.959 38.75C273.926 38.25 275.842 37.7667 277.709 37.3C278.009 37.2 278.259 37.1833 278.459 37.25C278.659 37.2833 278.792 37.3667 278.859 37.5C279.059 37.7667 279.059 38.1167 278.859 38.55C278.659 38.9833 278.392 39.3 278.059 39.5C277.459 39.8667 276.626 40.25 275.559 40.65C274.492 41.0833 273.342 41.4833 272.109 41.85C270.876 42.25 269.626 42.6167 268.359 42.95C267.092 43.2833 265.992 43.5167 265.059 43.65C264.492 43.75 264.026 43.6833 263.659 43.45C263.292 43.25 262.976 42.9667 262.709 42.6C262.109 41.9 262.042 41 262.509 39.9C262.909 39.1 263.476 38.2333 264.209 37.3C264.942 36.3333 265.692 35.4167 266.459 34.55C267.259 33.65 268.009 32.85 268.709 32.15C269.442 31.4167 269.976 30.8667 270.309 30.5C269.742 30.5 268.942 30.5667 267.909 30.7C266.909 30.8 265.976 30.9 265.109 31C264.276 31.1333 263.692 31.0667 263.359 30.8C263.026 30.5333 262.809 30.1667 262.709 29.7C262.642 29.3333 262.692 28.9667 262.859 28.6C263.059 28.2333 263.326 27.9333 263.659 27.7C264.192 27.3667 264.842 27 265.609 26.6C266.376 26.1667 267.092 25.7333 267.759 25.3C268.459 24.8667 269.042 24.4667 269.509 24.1C270.009 23.7 270.242 23.3833 270.209 23.15C270.176 22.85 269.942 22.65 269.509 22.55C269.076 22.4167 268.542 22.35 267.909 22.35C267.309 22.35 266.659 22.4 265.959 22.5C265.259 22.5667 264.626 22.65 264.059 22.75C263.426 22.8833 262.859 22.8833 262.359 22.75C261.892 22.6167 261.626 22.2167 261.559 21.55C261.526 21.0833 261.676 20.7333 262.009 20.5C262.376 20.2333 262.809 20.0167 263.309 19.85C263.909 19.65 264.576 19.5 265.309 19.4C266.076 19.2667 266.842 19.2 267.609 19.2C268.409 19.1667 269.159 19.2167 269.859 19.35C270.592 19.45 271.209 19.6333 271.709 19.9C272.276 20.1667 272.742 20.5833 273.109 21.15C273.476 21.7167 273.659 22.35 273.659 23.05ZM256.709 14.35C256.309 15.2833 255.909 16.2 255.509 17.1C255.109 17.9667 254.726 18.8333 254.359 19.7C255.292 19.9 256.076 20.3 256.709 20.9C257.376 21.5 257.792 22.0667 257.959 22.6C258.092 23.1667 258.076 23.7667 257.909 24.4C257.776 25 257.526 25.6 257.159 26.2C256.826 26.7667 256.409 27.3 255.909 27.8C255.409 28.2667 254.859 28.6667 254.259 29C253.926 29.2333 253.442 29.4667 252.809 29.7C252.209 29.9 251.609 29.9167 251.009 29.75C250.542 29.6167 250.159 29.3833 249.859 29.05C249.592 28.7167 249.392 28.3333 249.259 27.9C249.126 27.4333 249.059 26.95 249.059 26.45C249.092 25.9167 249.176 25.3833 249.309 24.85C249.609 23.75 249.892 22.7833 250.159 21.95C250.426 21.1167 250.709 20.3333 251.009 19.6C251.309 18.8333 251.626 18.05 251.959 17.25C252.326 16.45 252.742 15.5167 253.209 14.45C252.342 14.5167 251.526 14.6167 250.759 14.75C250.026 14.8833 249.259 15.0833 248.459 15.35C248.226 15.45 247.976 15.5 247.709 15.5C247.442 15.5 247.192 15.45 246.959 15.35C246.726 15.25 246.542 15.1 246.409 14.9C246.276 14.6667 246.226 14.3833 246.259 14.05C246.259 13.65 246.492 13.2833 246.959 12.95C247.459 12.6167 248.042 12.3333 248.709 12.1C249.676 11.7667 250.759 11.55 251.959 11.45C253.159 11.35 254.142 11.3833 254.909 11.55C255.842 11.75 256.426 12.15 256.659 12.75C256.892 13.3167 256.909 13.85 256.709 14.35ZM267.809 16.45C267.409 16.3167 267.076 16.1 266.809 15.8C266.576 15.4667 266.442 15.1667 266.409 14.9C266.176 12.9 266.092 11 266.159 9.2C266.226 7.4 266.442 5.7 266.809 4.1C266.909 3.7 267.076 3.35 267.309 3.05C267.542 2.75 267.792 2.61666 268.059 2.65C268.526 2.68333 268.942 2.9 269.309 3.3C269.676 3.66667 269.826 4.1 269.759 4.6C269.692 5.16667 269.626 5.73333 269.559 6.3C269.526 6.83333 269.476 7.38333 269.409 7.95C270.576 7.68333 271.859 7.48333 273.259 7.35C274.692 7.21667 276.076 7.38333 277.409 7.85C277.876 8.01667 278.192 8.31667 278.359 8.75C278.559 9.18333 278.592 9.53333 278.459 9.8C278.392 9.96666 278.176 10.0833 277.809 10.15C277.476 10.2167 277.092 10.2333 276.659 10.2C275.426 10.1333 274.142 10.1833 272.809 10.35C271.509 10.4833 270.342 10.6833 269.309 10.95C269.276 11.6167 269.259 12.2833 269.259 12.95C269.292 13.5833 269.342 14.2667 269.409 15C269.442 15.3667 269.326 15.75 269.059 16.15C268.826 16.5167 268.409 16.6167 267.809 16.45ZM256.759 9.5C256.359 9.66666 255.976 9.68333 255.609 9.55C255.276 9.41666 254.942 9.21666 254.609 8.95L249.709 3.9C249.442 3.63333 249.209 3.23333 249.009 2.7C248.842 2.16667 248.892 1.71666 249.159 1.35C249.292 1.15 249.542 1.03333 249.909 0.999997C250.276 0.933332 250.609 0.999998 250.909 1.2C251.676 1.66666 252.376 2.23333 253.009 2.9C253.642 3.53333 254.192 4.18333 254.659 4.85C255.159 5.48333 255.576 6.08333 255.909 6.65C256.276 7.21666 256.559 7.66666 256.759 8C256.859 8.16667 256.926 8.43333 256.959 8.8C256.992 9.16666 256.926 9.4 256.759 9.5ZM252.009 26.65C252.409 26.5167 252.809 26.3333 253.209 26.1C253.609 25.8333 253.976 25.55 254.309 25.25C254.642 24.95 254.892 24.6167 255.059 24.25C255.226 23.8833 255.276 23.5 255.209 23.1C255.109 22.6333 254.926 22.3 254.659 22.1C254.392 21.8667 254.076 21.6 253.709 21.3C253.342 22.1667 253.009 23.05 252.709 23.95C252.442 24.8167 252.209 25.7167 252.009 26.65ZM313.769 10.65C313.735 11.0167 313.519 11.3 313.119 11.5C312.719 11.7 312.052 11.8167 311.119 11.85C310.819 11.85 310.502 11.8667 310.169 11.9C309.869 11.9 309.569 11.9167 309.269 11.95C309.402 12.2167 309.485 12.5167 309.519 12.85C309.585 13.1833 309.585 13.55 309.519 13.95C309.285 15.25 309.102 16.5667 308.969 17.9C308.869 19.2 308.769 20.7 308.669 22.4C309.602 21.9 310.435 21.4167 311.169 20.95C311.902 20.4833 312.569 20.0167 313.169 19.55C313.802 19.05 314.402 18.55 314.969 18.05C315.535 17.5167 316.119 16.9667 316.719 16.4C316.719 15.0333 316.769 13.7167 316.869 12.45C317.002 11.1833 317.185 9.95 317.419 8.75C317.485 8.35 317.652 7.95 317.919 7.55C318.219 7.11667 318.719 6.98333 319.419 7.15C319.885 7.25 320.219 7.6 320.419 8.2C320.619 8.76666 320.685 9.28333 320.619 9.75C320.519 10.35 320.435 10.9333 320.369 11.5C320.302 12.0333 320.252 12.5833 320.219 13.15C321.119 12.9833 322.069 12.75 323.069 12.45C324.069 12.1167 325.019 11.75 325.919 11.35C326.052 10.0833 326.235 8.98333 326.469 8.05C326.635 7.35 326.835 6.8 327.069 6.4C327.302 6 327.752 5.83333 328.419 5.9C328.885 5.96666 329.252 6.21667 329.519 6.65C329.819 7.05 329.935 7.58333 329.869 8.25C329.735 9.21667 329.585 10.3667 329.419 11.7C329.252 13 329.102 14.3333 328.969 15.7C328.835 17.0667 328.719 18.4167 328.619 19.75C328.552 21.0833 328.535 22.25 328.569 23.25C328.602 23.8833 328.452 24.3667 328.119 24.7C327.819 25 327.502 25.1833 327.169 25.25C326.669 25.2833 326.302 25.1 326.069 24.7C325.835 24.2667 325.669 23.7167 325.569 23.05C325.402 22.0167 325.335 20.75 325.369 19.25C325.402 17.75 325.485 16.2167 325.619 14.65C324.685 15.05 323.735 15.4167 322.769 15.75C321.835 16.05 320.935 16.2833 320.069 16.45C320.035 17.2167 320.019 17.9667 320.019 18.7C320.052 19.4333 320.085 20.1333 320.119 20.8C320.152 21.9667 320.002 22.8 319.669 23.3C319.369 23.7667 319.002 24.0167 318.569 24.05C318.202 24.0833 317.902 23.95 317.669 23.65C317.469 23.35 317.302 22.9833 317.169 22.55C317.035 22.0833 316.952 21.6 316.919 21.1C316.885 20.5667 316.852 20.1 316.819 19.7C316.819 19.6333 316.802 19.5667 316.769 19.5C316.769 19.4 316.769 19.3167 316.769 19.25C316.102 20.2167 315.152 21.3333 313.919 22.6C312.685 23.8333 311.269 24.9833 309.669 26.05C309.269 26.3167 308.852 26.4667 308.419 26.5C308.019 26.5333 307.635 26.4833 307.269 26.35C306.935 26.1833 306.635 25.95 306.369 25.65C306.135 25.3167 305.969 24.95 305.869 24.55C305.735 23.9833 305.652 23.35 305.619 22.65C305.619 21.9167 305.652 21.15 305.719 20.35C305.552 20.75 305.352 21.0667 305.119 21.3C304.652 21.7 304.085 22.0833 303.419 22.45C302.785 22.8167 302.119 23.15 301.419 23.45C300.719 23.75 300.019 24.0333 299.319 24.3C298.652 24.5333 298.069 24.7167 297.569 24.85C296.935 25.0167 296.319 24.9333 295.719 24.6C295.119 24.2333 294.785 23.7167 294.719 23.05C294.685 22.45 294.685 21.75 294.719 20.95C294.785 20.15 294.869 19.3333 294.969 18.5C295.069 17.6333 295.202 16.7667 295.369 15.9C295.535 15.0333 295.702 14.2333 295.869 13.5C295.669 13.5 295.452 13.5167 295.219 13.55C294.985 13.55 294.752 13.5333 294.519 13.5C294.319 13.4333 294.135 13.3333 293.969 13.2C293.835 13.0667 293.769 12.8667 293.769 12.6C293.769 12.2333 293.935 11.8167 294.269 11.35C294.635 10.85 295.169 10.5667 295.869 10.5C296.369 10.4333 296.952 10.3833 297.619 10.35C298.319 10.3167 299.002 10.3167 299.669 10.35C300.369 10.35 301.019 10.3833 301.619 10.45C302.219 10.5167 302.702 10.6 303.069 10.7C303.269 10.7667 303.419 10.8333 303.519 10.9C303.685 10.6333 303.919 10.3833 304.219 10.15C304.519 9.88333 304.919 9.7 305.419 9.6C306.452 9.33333 307.519 9.16667 308.619 9.1C309.719 9.03333 310.802 9.11666 311.869 9.35C312.402 9.45 312.852 9.63333 313.219 9.9C313.619 10.1333 313.802 10.3833 313.769 10.65ZM320.369 29.1C320.435 28.6333 320.369 28.2 320.169 27.8C319.969 27.4 319.552 27.1167 318.919 26.95C318.685 26.8833 318.435 26.9167 318.169 27.05C317.935 27.1833 317.735 27.4833 317.569 27.95C317.269 28.8167 317.019 29.7833 316.819 30.85C316.652 31.9167 316.535 32.8667 316.469 33.7C316.402 34.8667 316.702 35.7 317.369 36.2C318.035 36.6667 318.985 36.7833 320.219 36.55C320.919 36.4167 321.752 36.2 322.719 35.9C323.719 35.6 324.735 35.25 325.769 34.85C326.802 34.4167 327.785 33.9667 328.719 33.5C329.685 33 330.469 32.5167 331.069 32.05C331.735 31.5167 332.135 31.05 332.269 30.65C332.435 30.2167 332.469 29.8667 332.369 29.6C332.202 29.2 331.902 29.05 331.469 29.15C331.069 29.25 330.735 29.3667 330.469 29.5C329.802 29.8 329.019 30.1333 328.119 30.5C327.252 30.8333 326.335 31.1667 325.369 31.5C324.435 31.8 323.485 32.0833 322.519 32.35C321.585 32.6167 320.719 32.8333 319.919 33C319.919 32.8 319.919 32.5333 319.919 32.2C319.952 31.8333 319.985 31.4667 320.019 31.1C320.085 30.7333 320.152 30.3667 320.219 30C320.285 29.6333 320.335 29.3333 320.369 29.1ZM302.169 13.45H298.719C298.652 14.05 298.569 14.7 298.469 15.4C298.402 16.0667 298.335 16.7667 298.269 17.5C298.235 18.2 298.202 18.9 298.169 19.6C298.135 20.3 298.119 20.9333 298.119 21.5C298.419 21.3667 298.852 21.2167 299.419 21.05C299.985 20.85 300.569 20.65 301.169 20.45C301.802 20.2167 302.385 20 302.919 19.8C303.485 19.5667 303.902 19.35 304.169 19.15C304.535 18.8833 304.852 18.8 305.119 18.9C305.419 19 305.635 19.15 305.769 19.35C305.835 18.55 305.919 17.7833 306.019 17.05C306.152 16.2833 306.269 15.6 306.369 15C306.502 14.3667 306.602 13.8333 306.669 13.4C306.769 12.9667 306.852 12.6833 306.919 12.55C306.919 12.45 306.952 12.3333 307.019 12.2C306.419 12.2667 305.935 12.3167 305.569 12.35C305.235 12.4167 304.985 12.45 304.819 12.45C304.585 13.15 303.702 13.4833 302.169 13.45ZM345.471 19.3C345.037 19.8333 344.571 20.3333 344.071 20.8C343.571 21.2667 343.104 21.75 342.671 22.25C342.271 22.75 341.954 23.2833 341.721 23.85C341.487 24.4167 341.437 25.0667 341.571 25.8C341.804 26.2667 341.904 26.6333 341.871 26.9C341.837 27.1333 341.704 27.3333 341.471 27.5C340.871 27.8333 340.271 27.6833 339.671 27.05C339.271 26.6167 338.987 26.1 338.821 25.5C338.687 24.8667 338.654 24.25 338.721 23.65C338.821 23.0167 339.004 22.4 339.271 21.8C339.571 21.2 339.954 20.6667 340.421 20.2C340.887 19.7333 341.371 19.25 341.871 18.75C342.371 18.2167 342.821 17.6667 343.221 17.1C343.621 16.5333 343.921 15.9667 344.121 15.4C344.321 14.8 344.371 14.1833 344.271 13.55C344.237 13.3167 344.104 13.1167 343.871 12.95C343.637 12.75 343.337 12.6 342.971 12.5C342.604 12.3667 342.187 12.3 341.721 12.3C341.287 12.2667 340.837 12.3167 340.371 12.45C339.604 12.6833 338.937 13.1 338.371 13.7C337.804 14.2667 337.504 14.8833 337.471 15.55C337.704 16.0833 337.687 16.45 337.421 16.65C337.187 16.8167 336.937 16.9 336.671 16.9C336.437 16.9 336.221 16.8333 336.021 16.7C335.221 15.9 334.871 15.0333 334.971 14.1C335.104 13.1667 335.471 12.3167 336.071 11.55C336.637 10.7833 337.354 10.1833 338.221 9.75C339.121 9.28333 340.087 9.01667 341.121 8.95C342.421 8.85 343.637 9.08333 344.771 9.65C345.937 10.1833 346.737 11.1 347.171 12.4C347.604 13.8667 347.604 15.1667 347.171 16.3C346.737 17.4333 346.171 18.4333 345.471 19.3ZM343.721 34.8C343.821 35.2667 343.754 35.6833 343.521 36.05C343.287 36.4167 342.971 36.7 342.571 36.9C342.204 37.1 341.804 37.1833 341.371 37.15C340.971 37.1167 340.621 36.9167 340.321 36.55C340.121 36.3167 340.004 36.05 339.971 35.75C339.937 35.45 339.937 35.1333 339.971 34.8C340.037 34.4667 340.104 34.15 340.171 33.85C340.271 33.55 340.321 33.2833 340.321 33.05C340.321 32.95 340.354 32.8333 340.421 32.7C340.487 32.5667 340.571 32.4667 340.671 32.4C340.804 32.3 340.937 32.25 341.071 32.25C341.204 32.25 341.354 32.35 341.521 32.55C341.987 32.9167 342.471 33.3 342.971 33.7C343.471 34.0667 343.721 34.4333 343.721 34.8ZM379.115 11.45C378.982 11.6167 378.732 11.75 378.365 11.85C378.032 11.9167 377.682 11.8167 377.315 11.55C377.048 11.35 376.732 11.15 376.365 10.95C375.998 10.7167 375.598 10.5 375.165 10.3C374.732 10.1 374.298 9.93333 373.865 9.8C373.432 9.66667 373.015 9.6 372.615 9.6C372.115 9.6 371.582 9.71667 371.015 9.95C370.482 10.1833 370.015 10.5167 369.615 10.95C368.848 11.7833 368.565 12.6 368.765 13.4C368.998 14.1667 369.582 14.8833 370.515 15.55C371.115 15.9833 371.765 16.4333 372.465 16.9C373.165 17.3333 373.848 17.7667 374.515 18.2C375.215 18.6333 375.865 19.05 376.465 19.45C377.098 19.85 377.648 20.2 378.115 20.5C378.715 20.9 379.282 21.3333 379.815 21.8C380.348 22.2667 380.815 22.8 381.215 23.4C381.615 23.9667 381.932 24.6167 382.165 25.35C382.398 26.0833 382.515 26.9167 382.515 27.85C382.282 29.6833 381.548 31.15 380.315 32.25C379.115 33.3167 377.715 34 376.115 34.3C374.715 34.5667 373.332 34.5167 371.965 34.15C370.632 33.7833 369.498 33.0833 368.565 32.05C368.332 31.7833 368.132 31.4167 367.965 30.95C367.798 30.4833 367.782 30.15 367.915 29.95C368.115 29.65 368.465 29.45 368.965 29.35C369.465 29.2167 369.848 29.2333 370.115 29.4C370.882 30.1 371.782 30.6167 372.815 30.95C373.848 31.25 374.932 31.2667 376.065 31C376.932 30.8 377.632 30.4333 378.165 29.9C378.698 29.3333 379.032 28.7 379.165 28C379.332 27.2667 379.232 26.5167 378.865 25.75C378.532 24.95 377.915 24.2333 377.015 23.6C375.648 22.5667 374.182 21.6 372.615 20.7C371.082 19.8 369.515 18.7667 367.915 17.6C367.148 16.9333 366.582 16.2 366.215 15.4C365.882 14.6 365.715 13.8167 365.715 13.05C365.715 12.25 365.882 11.5 366.215 10.8C366.548 10.0667 367.015 9.41667 367.615 8.85C368.215 8.25 368.915 7.76666 369.715 7.4C370.515 7.03333 371.398 6.81667 372.365 6.75C373.698 6.68333 374.982 6.96667 376.215 7.6C377.448 8.2 378.448 8.95 379.215 9.85C379.382 10.05 379.448 10.3 379.415 10.6C379.415 10.9 379.315 11.1833 379.115 11.45ZM401.536 11.2C401.469 11.4 401.236 11.6333 400.836 11.9C400.436 12.1667 400.102 12.3 399.836 12.3C398.402 12.1667 396.969 12.05 395.536 11.95C394.136 11.85 392.702 11.7833 391.236 11.75C391.436 12.9167 391.619 14.0833 391.786 15.25C391.986 16.4167 392.169 17.5833 392.336 18.75C395.169 18.65 397.969 18.5 400.736 18.3C401.202 18.3 401.669 18.45 402.136 18.75C402.602 19.05 402.836 19.3333 402.836 19.6C402.836 19.9667 402.686 20.3 402.386 20.6C402.086 20.8667 401.719 21.0333 401.286 21.1C399.886 21.3333 398.469 21.5167 397.036 21.65C395.636 21.75 394.202 21.8333 392.736 21.9C392.902 23.0667 393.036 24.2333 393.136 25.4C393.269 26.5333 393.386 27.6667 393.486 28.8C393.552 29.2667 393.502 29.7667 393.336 30.3C393.202 30.8 392.969 31.05 392.636 31.05C392.336 31.05 392.052 30.9667 391.786 30.8C391.519 30.6333 391.269 30.45 391.036 30.25C390.836 30.0167 390.669 29.7667 390.536 29.5C390.402 29.2333 390.319 29 390.286 28.8C389.952 25.9333 389.586 23.0833 389.186 20.25C388.819 17.4167 388.402 14.5667 387.936 11.7H386.286C385.819 11.7 385.386 11.65 384.986 11.55C384.586 11.45 384.286 11.2 384.086 10.8C384.019 10.7 383.969 10.5333 383.936 10.3C383.936 10.0667 383.952 9.83333 383.986 9.6C384.052 9.36667 384.152 9.15 384.286 8.95C384.419 8.75 384.602 8.61666 384.836 8.55C386.136 8.35 387.519 8.26667 388.986 8.3C390.486 8.33333 391.936 8.43333 393.336 8.6C394.769 8.73333 396.102 8.93333 397.336 9.2C398.602 9.46667 399.686 9.75 400.586 10.05C401.152 10.3833 401.469 10.7667 401.536 11.2ZM407.668 32.8C407.501 33.3667 407.285 33.8833 407.018 34.35C406.751 34.7833 406.468 35.0333 406.168 35.1C405.535 35.2667 405.051 35.1667 404.718 34.8C404.385 34.4333 404.251 33.9667 404.318 33.4C404.585 31.4 405.018 29.3 405.618 27.1C406.218 24.8667 406.918 22.65 407.718 20.45C408.518 18.2167 409.385 16.0667 410.318 14C411.285 11.9 412.268 10 413.268 8.3C413.435 8.03333 413.618 7.88333 413.818 7.85C414.051 7.78333 414.251 7.78333 414.418 7.85C414.585 7.71667 414.785 7.6 415.018 7.5C415.251 7.4 415.485 7.35 415.718 7.35C415.818 7.35 415.918 7.36667 416.018 7.4C416.151 7.43333 416.285 7.53333 416.418 7.7C416.551 7.86666 416.701 8.11666 416.868 8.45C417.068 8.75 417.301 9.2 417.568 9.8C418.035 11.5 418.568 13.25 419.168 15.05C419.801 16.85 420.451 18.65 421.118 20.45C421.218 20.4167 421.301 20.4 421.368 20.4C421.468 20.3667 421.568 20.3333 421.668 20.3C422.035 20.2667 422.451 20.2833 422.918 20.35C423.385 20.4167 423.701 20.65 423.868 21.05C424.068 21.55 424.035 21.9833 423.768 22.35C423.501 22.7167 423.018 23.0833 422.318 23.45C422.751 24.5167 423.185 25.5667 423.618 26.6C424.051 27.6 424.501 28.5833 424.968 29.55C425.001 29.7167 425.051 29.9833 425.118 30.35C425.185 30.6833 425.218 31.0333 425.218 31.4C425.251 31.7333 425.235 32.05 425.168 32.35C425.101 32.65 424.968 32.85 424.768 32.95C424.535 33.05 424.285 33.0333 424.018 32.9C423.785 32.7667 423.551 32.6 423.318 32.4C423.085 32.1667 422.868 31.9333 422.668 31.7C422.501 31.4333 422.368 31.2 422.268 31C421.701 29.9 421.151 28.8 420.618 27.7C420.118 26.5667 419.635 25.4333 419.168 24.3C417.768 24.5667 416.235 24.8 414.568 25C412.935 25.2 411.318 25.3333 409.718 25.4C409.351 26.6667 408.985 27.9167 408.618 29.15C408.285 30.35 407.968 31.5667 407.668 32.8ZM414.768 11.8C413.235 15.2333 411.901 18.6667 410.768 22.1C413.001 22.0333 415.385 21.75 417.918 21.25C416.718 18.2167 415.668 15.0667 414.768 11.8ZM453.566 34.6C453.199 34.6 452.816 34.3167 452.416 33.75C452.049 33.1833 451.849 32.6333 451.816 32.1C451.549 30.1667 451.216 27.9167 450.816 25.35C450.449 22.75 449.949 19.6833 449.316 16.15C448.316 18.05 447.333 19.9333 446.366 21.8C445.399 23.6667 444.433 25.5333 443.466 27.4C442.866 28.5667 442.249 29.15 441.616 29.15C440.683 29.15 439.949 28.6667 439.416 27.7C438.249 26 437.033 24.4167 435.766 22.95C434.533 21.45 433.249 19.9667 431.916 18.5C431.849 20.7333 431.866 22.9333 431.966 25.1C432.099 27.2333 432.316 29.3167 432.616 31.35C432.683 31.7167 432.633 32.05 432.466 32.35C432.333 32.6167 432.183 32.7833 432.016 32.85C431.549 33.0167 431.083 32.9167 430.616 32.55C430.149 32.1833 429.866 31.7833 429.766 31.35C429.466 30.15 429.249 28.8167 429.116 27.35C428.983 25.8833 428.883 24.4 428.816 22.9C428.783 21.4 428.766 19.9167 428.766 18.45C428.766 16.9833 428.783 15.65 428.816 14.45C428.816 13.1167 429.249 12.45 430.116 12.45C430.649 12.45 431.099 12.65 431.466 13.05C431.833 13.4167 432.033 13.95 432.066 14.65C433.733 16.3167 435.299 18.0333 436.766 19.8C438.266 21.5333 439.716 23.3 441.116 25.1C442.283 23 443.466 20.85 444.666 18.65C445.866 16.4167 447.216 14.25 448.716 12.15C448.783 11.7833 448.966 11.4167 449.266 11.05C449.566 10.65 449.899 10.3833 450.266 10.25C450.633 10.1167 451.016 10.2667 451.416 10.7C451.816 11.1333 452.083 11.6333 452.216 12.2C452.783 15.5667 453.266 18.9333 453.666 22.3C454.099 25.6667 454.516 29.0333 454.916 32.4C454.983 33.0333 454.866 33.5667 454.566 34C454.266 34.4 453.933 34.6 453.566 34.6ZM466.884 6.55C466.584 8.01667 466.267 9.46667 465.934 10.9C465.634 12.3333 465.35 13.7667 465.084 15.2C464.817 16.6333 464.617 18.0667 464.484 19.5C464.35 20.9333 464.334 22.3667 464.434 23.8C464.5 24.1667 464.434 24.5167 464.234 24.85C464.067 25.1833 463.867 25.4 463.634 25.5C462.9 25.7667 462.367 25.5833 462.034 24.95C461.634 23.25 461.417 21.5667 461.384 19.9C461.384 18.2333 461.5 16.5833 461.734 14.95C462 13.3167 462.334 11.7 462.734 10.1C463.167 8.46667 463.6 6.85 464.034 5.25C464.2 4.58333 464.467 4.21666 464.834 4.15C465.2 4.08333 465.55 4.11666 465.884 4.25C466.384 4.41666 466.7 4.75 466.834 5.25C466.967 5.75 466.984 6.18333 466.884 6.55ZM464.884 33.45C464.884 33.8167 464.834 34.3167 464.734 34.95C464.667 35.55 464.534 36.1167 464.334 36.65C464.167 37.1833 463.917 37.6167 463.584 37.95C463.284 38.2833 462.9 38.35 462.434 38.15C462.167 37.9833 461.9 37.6667 461.634 37.2C461.367 36.7333 461.25 36.3 461.284 35.9C461.35 35.1 461.517 34.3167 461.784 33.55C462.05 32.7833 462.4 32.3167 462.834 32.15C463.034 32.0833 463.25 32.0833 463.484 32.15C463.75 32.2167 463.984 32.3333 464.184 32.5C464.384 32.6333 464.55 32.8 464.684 33C464.817 33.1667 464.884 33.3167 464.884 33.45Z" fill="#222222"/>
</svg>
