<svg width="189" height="171" viewBox="0 0 189 171" fill="none" xmlns="http://www.w3.org/2000/svg">
<path d="M189 76.95C189 67.4595 181.268 59.85 171.818 59.85H117.524L125.771 20.7765C125.943 19.9215 126.029 18.981 126.029 18.0405C126.029 14.535 124.568 11.286 122.249 8.9775L113.142 0L56.6141 56.259C53.4355 59.4225 51.5455 63.6975 51.5455 68.4V153.9C51.5455 158.435 53.3557 162.785 56.5779 165.992C59.8001 169.198 64.1704 171 68.7273 171H146.045C153.176 171 159.275 166.725 161.853 160.569L187.797 100.291C188.57 98.325 189 96.273 189 94.05V76.95ZM0 171H34.3636V68.4H0V171Z" fill="#89CFFD"/>
</svg>
